<?xml version="1.0" encoding="utf-8"?>
<!-- Generator: Adobe Illustrator 22.1.0, SVG Export Plug-In . SVG Version: 6.00 Build 0)  -->
<svg version="1.1" id="Layer_1" xmlns="http://www.w3.org/2000/svg" xmlns:xlink="http://www.w3.org/1999/xlink" x="0px" y="0px"
	 viewBox="0 0 194.5 109.3" style="enable-background:new 0 0 194.5 109.3;" xml:space="preserve">
<style type="text/css">
	.st0{fill:#EB008B;}
	.st1{fill:#6D6E70;stroke:#6D6E70;stroke-width:0.1344;stroke-miterlimit:10;}
</style>
<g>
	<g>
		<g>
			<g>
				<path class="st0" d="M120.5,63.8c1.2-0.8,2.3-1.7,3.4-2.5c0.9-0.7,1.6-1.2,1.8-1.4c0.5-0.4,1.5-1.2,2.3-2.3
					c0.7-1,1.3-2.2,1.3-3.5c0.1-1.6-0.6-3.3-1.8-4.7c-2.2-2.5-6.9-5.7-11.1-9c-1.1-0.9-1.8-1.5-2.4-2.2c-0.6-0.6-1.2-1.2-1.6-1.9
					c-1.4-1.9-1.9-3.2-2.2-4.6c-0.2-0.7-0.3-1.3-0.2-2.6c0-1.7,0.6-4,2-6c0.8-1.1,1.8-2.1,2.2-2.6c0.5-0.6,1.2-1.3,2-2
					c0.9-0.8,2.4-2.2,2.5-2.4c0.4-0.3,0.8-1,0.8-1.8c0-1.5-1.2-2.6-2.6-2.6c-0.7,0-1.3,0.3-1.7,0.7c-0.6,0.6-4,3.7-5.8,5.8
					c-0.9,1.1-1.7,2.2-2.1,2.7c-0.4,0.8-1,1.6-1.8,4.2c-0.3,1.2-0.6,2.6-0.6,4.2c0,4.3,1.7,8,4.5,11.2c1,1.1,2.1,2.2,3.2,3.2
					c1.8,1.4,3.4,2.7,4.9,3.8c2,1.5,3.1,2.3,4.3,3.3c1.2,1.1,2.6,2.7,1.1,4.5c-0.4,0.5-2,1.8-3.8,3.1c-1.6,1.2-3.3,2.3-4.2,2.9
					c-0.7,0.4-3.1,2.1-5.5,3.5c-2.5,1.5-4.8,3-4.9,3.1c-0.8,0.5-1.2,1.3-1.2,2.1c0,1.4,1.1,2.6,2.6,2.6c0.5,0,1-0.2,1.3-0.4
					c0.1-0.1,1.1-0.7,1.5-0.9c2-1.2,7.2-4.5,7.9-5C117.2,66.1,118.8,65,120.5,63.8z"/>
				<path class="st0" d="M131.6,43.5c-0.7-0.6-2.6-2.2-4.7-3.7c-2.3-1.7-4.5-3.3-5.5-4.1c-0.9-0.7-2.2-1.6-3.2-2.9
					c-0.7-0.9-0.9-1.2-1.2-2c-0.5-1.2-0.3-2.5,0.3-3.6c0.3-0.5,0.8-1.4,3.6-4.1c1.1-1,1.8-1.7,2.8-2.6c1.5-1.3,4.5-4,4.9-4.2
					c0.6-0.5,1-1.2,1-2c0-1.4-1.1-2.6-2.6-2.6c-0.7,0-1.2,0.2-1.8,0.7c-0.9,0.8-6.9,5.9-10.1,9.2c-0.8,0.8-1.4,1.6-2,2.4
					c-0.9,1.4-1.5,2.9-1.6,4.5c-0.2,2.4,0.5,4.7,2.1,6.8c1.4,1.9,3.1,3.3,3.8,3.8c1.5,1.2,3.9,3,5.8,4.4c1.7,1.3,2.4,1.8,2.6,2
					c0.9,0.7,1.6,1.3,2.3,1.8c0.6,0.5,1.2,1.2,1.7,2.1c1.1,2.1,1.3,4.4,0.9,6.1c-0.2,1.1-0.7,1.9-1.3,2.5c-0.3,0.3-1.2,1.5-3.1,3.1
					c-1.2,1-2.7,2.2-4.2,3.2c-2.8,2-4.9,3.4-5.2,3.6c-0.7,0.5-1.2,1.3-1.2,2.2c0,1.4,1.2,2.6,2.6,2.6c0.5,0,0.9-0.2,1.3-0.4
					c0.1,0,1.1-0.8,1.5-1c1-0.7,1.9-1.3,2.6-1.8c0.6-0.4,2.4-1.7,3-2.2c0.7-0.5,1.4-1.1,2.1-1.6c1.1-0.9,2.5-2.1,3.3-3
					c0.8-0.8,1.6-1.8,2-2.3c1.3-2,1.9-4.3,1.9-6.6c0-0.3,0-2.3-0.6-4.4C134.9,47.7,133.7,45.3,131.6,43.5z"/>
				<path class="st0" d="M20.8,61.8c0.7-0.5,1.6-1.2,2.6-2.1c1.1-0.9,2.1-1.8,3-2.8c2.7-2.7,4.6-5.3,4.5-8.4c-0.1-1.8-1-3.8-3-5.6
					c-1.1-0.9-4.6-3.4-6.6-4.9c-2.7-2.1-5.8-4.2-7.4-5.4c-1.1-0.7-1.8-1.3-2-1.5c-2.4-1.9-4.8-5.1-5.1-8.8c-0.1-1.4-0.1-2.4,0.3-4.4
					c0.4-1.7,1.2-3.7,2.6-5.4C12.1,9.2,15,6.4,16.9,5c0.5-0.4,0.8-0.6,0.9-0.7c0.4-0.3,0.7-0.9,0.7-1.8c0-1.4-1.1-2.6-2.5-2.6
					c-0.7,0-1.3,0.3-1.8,0.7c-0.6,0.5-4.4,3-8.7,8.8c-1.2,1.6-3.7,5.7-3.9,11c-0.2,3.9,1.1,8.7,5.3,13c0.7,0.7,1.5,1.4,3,2.6
					c0.9,0.6,3.8,2.7,6.4,4.6c0.9,0.6,2.2,1.7,3.6,2.7c0.6,0.4,0.7,0.5,2.7,2.1c0.5,0.4,1,0.9,1.3,1.2c0.2,0.3,0.4,0.5,0.6,1
					c0.2,0.4,0.4,0.8,0.5,1.4c0.1,0.8-0.2,1.6-0.7,2.4c-0.4,0.6-1.3,1.5-1.6,1.8c-1.3,1.3-2.8,2.6-4.8,4.2c-1.8,1.4-3.8,2.8-5.9,4
					C6.5,65,1.2,67.7,1.2,67.8C0.4,68.3,0,69.1,0,69.9c0,1.4,1.1,2.6,2.6,2.6c0.5,0,1-0.2,1.3-0.4c0,0,5.8-3.1,11.8-6.9
					C17.5,64.1,19.2,63,20.8,61.8z"/>
				<path class="st0" d="M192,12.4c-1.4,0-2.6,1.2-2.6,2.5v54.2c0,1.4,1.1,2.6,2.6,2.6s2.6-1.1,2.6-2.6V14.9
					C194.5,13.5,193.4,12.4,192,12.4z"/>
				<path class="st0" d="M182,25.9c-2.5-2.7-5.3-4.5-9-5.7c-2.8-0.9-6.3-1.4-10.2-1c-6,0.6-11,3.1-14.3,6.6
					c-4.2,4.5-6.2,11-5.5,17.6c1.1,11.8,10,21,19.8,21.7c3.1,0.2,5.9-0.5,8.3-1.7c3.9-2,6-5,6.4-5.7c0.3-0.4,0.6-1,0.6-1.6
					c0-1.3-1.1-2.5-2.6-2.6c-0.9,0-1.6,0.4-2.1,1.1c-0.6,0.8-2.1,2.8-4.8,4.2c-5.4,2.7-11.9,0.2-16-5c-2.1-2.8-3.2-5.3-3.9-7.9
					c-1.1-4-0.5-7.2-0.4-8c0.2-1.7,0.8-3.3,1.4-4.7c1.4-3.1,3.4-5.2,6.1-6.7c2.5-1.4,5.6-2.4,9.1-2.4c5.2-0.1,8.9,1.4,11.5,3.4
					c5.8,4.4,6.2,11.9,6.4,14.2c0.2,3.5,0,7.4-1.1,11.1c-1.5,5.2-4.7,9.5-9.3,11.8c-2.5,1.3-5.4,2-8.7,1.9c-2.8-0.1-5.2-0.7-7.5-1.6
					c-3-1.3-5-2.8-6.8-4.5c-3.1-2.9-5.2-6.6-6.4-10.2c-1-3.1-1.5-5.5-1.7-8.6c-0.5-6.2,1.8-13.5,7.8-18.5c3.9-3.3,9.3-5.8,16.2-5.6
					c4.3,0.1,6.7,0.6,9.5,1.6c2.2,0.8,3.8,1.8,4.8,2.5c1.3,1,2,1.6,2.8,2.4c0.5,0.5,0.8,0.8,0.9,0.9c0.5,0.4,1.1,0.6,1.8,0.6
					c1.5,0,2.8-1.3,2.8-2.9v-7.7c0-1.4-1.2-2.5-2.6-2.5c-1.4,0-2.6,1.2-2.6,2.5v2.7c-2.4-1.8-5-2.8-6-3.2c-1.9-0.7-4.3-1.3-7-1.7
					c-3.3-0.4-7.6-0.6-12.3,0.5c-5.1,1.2-10.5,4.2-14.6,8.9c-4.9,5.7-6.9,12.6-6.7,19c0.3,5.7,1.7,10.6,3.4,14.2
					c2.9,6.2,6.9,9.6,9.5,11.4c3.4,2.4,8.1,4.6,13.7,4.9c2.6,0.1,14.5,0.4,21.4-11.7c0.8-1.4,1.3-2.6,2-4.5c1.4-3.8,2-8.9,1.6-14.3
					C187.3,34.7,185.3,29.6,182,25.9z"/>
				<path class="st0" d="M96.9,12.5c-1.4,0-2.6,1.1-2.6,2.5v54.2c0,1.4,1.1,2.6,2.6,2.6s2.5-1.2,2.5-2.6V15
					C99.4,13.6,98.3,12.5,96.9,12.5z"/>
				<path class="st0" d="M35.4,41c-0.9-1.3-2.1-2.6-3.9-3.9c-1.8-1.3-4.9-3.5-9.2-6.6c-2.9-2.1-5.4-4-5.8-4.3
					c-0.7-0.6-1.3-1.2-1.8-1.7c-1.6-2-1.6-4.2-0.5-6.6c0.5-1,1.1-2,2-3.1c0.9-1,2-2.2,3.5-3.5c1.2-1,2.6-2.2,4-3.2
					c0.1-0.1,0.6-0.5,1.3-1c1.3-1,2.5-1.9,3.2-2.4c0.6-0.5,1-1.2,1-2c0-1.4-1.1-2.6-2.6-2.6c-0.6,0-1.1,0.3-1.7,0.7
					c-0.6,0.4-3.9,2.8-6.9,5.3c-2.2,1.8-4.6,4.1-5.8,5.7c-2.6,3.3-3.9,6.6-3.7,9.6c0.1,2.3,0.9,4.5,2.4,6.4c0.7,0.9,1.5,1.7,2.5,2.5
					c0.3,0.3,1.3,1,2.7,2c1.5,1.1,2.1,1.5,4.3,3.2c3.8,2.8,5.4,3.9,8.4,6c0.9,0.6,1.5,1.2,2.2,2.1c0.7,0.8,1.2,1.8,1.4,2.9
					c0.4,1.7,0.4,3.4-0.4,5.4c-0.7,2-2,3.9-4.6,6.4c-1.6,1.6-3.3,3.1-5,4.4c-4,3.1-7.5,5.1-7.7,5.2c-0.7,0.5-1.1,1.3-1.1,2.1
					c0,1.4,1.1,2.6,2.5,2.6c0.5,0,1-0.1,1.3-0.4c0,0,1.9-1.1,4.4-2.8c3.2-2.2,7.5-5.5,10.6-8.9c1.3-1.4,2.5-2.9,3.5-4.8
					c1.7-3.2,2.6-7.1,1.3-11.3C36.7,43.5,36.2,42.3,35.4,41z"/>
				<path class="st0" d="M86.9,25.9c-2.5-2.7-5.2-4.5-8.9-5.7c-2.8-0.9-6.3-1.4-10.2-1c-6,0.6-11,3.1-14.3,6.7
					c-4.2,4.5-6.2,11-5.5,17.6c1.1,11.7,10,20.9,19.8,21.7c3,0.2,5.9-0.5,8.3-1.7c3.9-2,5.9-5,6.4-5.7c0.4-0.4,0.5-1,0.5-1.6
					c0-1.4-1.1-2.6-2.6-2.6c-0.9,0-1.6,0.4-2.1,1.1c-0.6,0.8-2.1,2.9-4.8,4.2c-5.4,2.7-11.9,0.2-16.1-5c-2.1-2.8-3.2-5.3-3.9-7.9
					c-1.1-4-0.5-7.2-0.4-8c0.2-1.7,0.7-3.3,1.4-4.7c1.3-3.1,3.4-5.2,6.1-6.7c2.4-1.4,5.6-2.4,9-2.4c5.3-0.1,8.9,1.4,11.5,3.4
					c5.8,4.4,6.2,11.9,6.3,14.1c0.2,3.5-0.1,7.4-1.1,11.1c-1.4,5.2-4.7,9.5-9.2,11.8c-2.5,1.3-5.4,2-8.7,1.9
					c-2.8-0.1-5.2-0.7-7.5-1.6c-3-1.3-4.9-2.8-6.8-4.5c-3.1-2.9-5.2-6.6-6.4-10.2c-1-3-1.5-5.5-1.7-8.6c-0.5-6.2,1.8-13.5,7.8-18.5
					c4-3.3,9.4-5.8,16.2-5.6c4.3,0.1,6.7,0.6,9.5,1.6c2.2,0.8,3.8,1.8,4.8,2.5c1.4,1,2,1.6,2.8,2.4c0.4,0.5,0.9,0.8,0.9,0.9
					c0.5,0.4,1.1,0.6,1.8,0.6c1.6,0,2.8-1.3,2.8-2.9V15c0-1.4-1.2-2.5-2.6-2.5c-1.4,0-2.6,1.1-2.6,2.5v2.7c-2.4-1.8-5-2.8-6-3.2
					c-1.9-0.7-4.2-1.3-6.9-1.7c-3.3-0.4-7.6-0.6-12.3,0.5c-5.2,1.2-10.5,4.2-14.6,8.9c-4.9,5.7-6.9,12.6-6.7,19
					c0.2,5.7,1.7,10.6,3.4,14.2c2.9,6.2,6.9,9.7,9.5,11.4c3.4,2.4,8.1,4.6,13.7,4.9c2.6,0.2,14.5,0.4,21.4-11.7
					c0.8-1.4,1.3-2.6,2-4.5c1.3-3.8,2-8.9,1.6-14.3C92.3,34.7,90.2,29.6,86.9,25.9z"/>
			</g>
		</g>
	</g>
	<g>
		<path class="st1" d="M14.7,96.7c-1.8,1.4-2.5,2.3-2.9,2.3c-0.1,0-0.3-0.1-0.3-0.3c0-0.4,0.6-1.6,1.2-2.6c1.1-1.7,1.3-2.2,1.6-2.2
			c0.1,0,0.3,0.1,0.3,0.3c0,0.4-0.5,0.7-1.2,1.8c-0.5,0.8-0.9,1.5-0.9,1.6c0,0.1,0.1,0.2,0.2,0.2c0.1,0,1.4-1,2.5-1.9
			c1.1-0.9,2.6-2,3-2c0.2,0,0.3,0.1,0.3,0.3c0,0.2-0.2,0.4-0.3,0.6c-0.4,0.6-1.4,2.1-1.4,2.6c0,0.1,0,0.2,0.1,0.2
			c0.1,0,0.3-0.1,0.6-0.4c0.9-0.6,3.6-2.5,4.3-3c0.2-0.1,0.5-0.4,0.7-0.4c0.1,0,0.2,0.1,0.2,0.2c0,0.2-0.1,0.3-0.4,0.6
			c-0.2,0.4-0.6,1-0.6,1.9c0,1.1,0.5,1.5,1.4,1.5c1.5,0,3-1.5,3.4-1.9c0.1-0.1,0.1-0.1,0.2-0.1c0.1,0,0.1,0,0.1,0.1
			c0,0.1-0.1,0.2-0.1,0.2c-0.5,0.5-1,1-2,1.6c-0.8,0.5-1.4,0.7-2.1,0.7c-1.1,0-1.6-0.9-1.6-1.9c0-0.9,0.1-1.2,0.4-1.8
			c-1,0.6-3.3,2.2-4.5,3.1c-0.2,0.2-0.5,0.4-0.7,0.4c-0.1,0-0.3-0.1-0.3-0.4c0-0.7,1.2-2.5,1.6-3.4C16.7,95,15.1,96.4,14.7,96.7z"/>
		<path class="st1" d="M30.8,94.7c0.1,0,0.2,0.1,0.2,0.2c0,0.2-0.4,0.8-0.4,1.9c0,1.2,0.6,1.7,1.6,1.7c1.2,0,2.9-1.3,3.2-1.7
			c0.1-0.1,0.2-0.2,0.3-0.2c0.1,0,0.1,0,0.1,0.1c0,0.1-0.1,0.2-0.1,0.3c-0.5,0.5-0.9,0.8-1.9,1.4c-0.8,0.5-1.7,0.9-2.4,0.9
			c-1.1,0-1.5-0.9-1.5-2.4c-0.6,0.7-2.3,2.3-3.2,2.3c-0.9,0-1-0.7-1-1.1c0-0.9,1-2.1,1.7-2.9c0.7-0.8,1.8-1.8,2.6-1.8
			c0.4,0,0.6,0.3,0.6,0.7c0,0.2-0.1,0.4-0.2,0.6c-0.1,0.2-0.3,0.3-0.4,0.3c-0.2,0-0.1-0.3-0.2-0.4c-0.1-0.1-0.2-0.3-0.5-0.3
			c-0.7,0-2.6,1.6-2.6,3.2c0,0.6,0.3,0.9,0.7,0.9c0.4,0,1.7-0.7,2.8-2.1C30.5,95.4,30.5,94.7,30.8,94.7z"/>
		<path class="st1" d="M40.2,89.7c-1.9,3.2-2.6,4.3-3.3,5.6c-0.4,0.6-0.7,1.2-1,1.9c0.5-0.4,2.4-2.2,3.6-3C40.9,93.1,43,92,44,92
			c0.3,0,0.7,0.3,0.7,0.7c0,0.2-0.1,0.6-0.5,0.6c-0.3,0-0.5-0.2-0.8-0.2c-1.7,0-4.7,1.8-4.7,2.4c0,0.6,2.1,3.1,4.4,3.1
			c1.8,0,3.5-1.5,3.7-1.9c0.1-0.1,0.1-0.1,0.2-0.1c0,0,0.1,0,0.1,0.1c0,0.1-0.1,0.2-0.2,0.3c-0.4,0.5-1,1.1-2,1.7
			c-0.9,0.5-1.8,0.7-2.5,0.7c-1,0-3.2-0.8-4.7-3.1c-1.6,1-2.3,1.8-2.9,2.4c-0.2,0.2-0.7,0.8-0.8,0.8c-0.1,0-0.2,0-0.2-0.2
			c0-0.2,3.8-6.4,5.4-8.9c1.6-2.6,2.3-4.1,2.7-4.9c0.1-0.3,0.1-0.9,0.2-1.1c0.1-0.2,0.6-0.5,0.9-0.5c0.2,0,0.2,0.1,0.2,0.3
			C43.3,84.3,41.4,87.6,40.2,89.7z"/>
		<path class="st1" d="M48.8,93.8c0,0.2-0.4,0.5-0.8,1.2c-0.5,0.8-0.8,1.5-0.8,2.3c0,1,0.5,1.6,1.4,1.6c1.5,0,3.3-1.8,3.6-2.1
			c0.1-0.1,0.2-0.2,0.3-0.2c0,0,0.1,0,0.1,0.1c0,0.1-0.1,0.2-0.2,0.3c-0.5,0.5-1.2,1.2-1.8,1.7c-0.8,0.5-1.7,1.1-2.5,1.1
			c-0.9,0-1.6-0.8-1.6-1.8c0-2.1,2-4.3,2.2-4.3C48.8,93.6,48.8,93.7,48.8,93.8z M49.1,91.4c0-0.5,0.3-0.9,0.9-0.9
			c0.5,0,0.8,0.3,0.8,0.9c0,0.6-0.3,0.9-0.8,0.9C49.4,92.2,49.1,91.9,49.1,91.4z"/>
		<path class="st1" d="M54,94.6c0,0.2-0.2,0.3-0.3,0.6c-0.3,0.5-1.2,2.3-1.2,2.8c0,0.2,0,0.2,0.1,0.2c0.1,0,0.2,0,0.4-0.3
			c0.8-0.8,3.4-3.6,4.2-4.1c0.2-0.1,0.3-0.2,0.5-0.2c0.2,0,0.3,0.1,0.3,0.2c0,0.2-0.2,0.4-0.4,0.7c-0.2,0.4-0.6,1.2-0.6,2.1
			c0,1.2,0.5,1.6,1.3,1.6c1.7,0,3.5-1.7,3.7-2.1c0.1-0.1,0.1-0.1,0.2-0.1c0.1,0,0.1,0,0.1,0.1c0,0.1-0.1,0.2-0.2,0.2
			c-0.4,0.5-1,1-2,1.6c-0.8,0.5-1.7,0.9-2.5,0.9c-1.1,0-1.5-0.9-1.5-1.9c0-0.9,0.1-1.4,0.4-2c-0.9,0.6-2.8,2.7-4,4
			c-0.2,0.2-0.4,0.3-0.5,0.3c-0.1,0-0.3-0.1-0.3-0.5c0-0.9,1.1-3.6,1.6-4.2c0.2-0.2,0.2-0.3,0.4-0.3C53.9,94.3,54,94.4,54,94.6z"/>
		<path class="st1" d="M65.1,99.7c0.6-0.2,1.8-0.7,2.9-1.3c1.6-0.8,2.1-1.1,2.7-1.6c0.1-0.1,0.2-0.2,0.3-0.2c0.1,0,0.1,0,0.1,0.1
			c0,0.1-0.1,0.2-0.2,0.3C70,97.8,69,98.3,67.4,99c-1.2,0.6-1.8,0.8-2.5,1.1c-1.9,4.3-4.9,9.2-7.9,9.2c-0.4,0-1.5-0.1-1.5-1.4
			c0-1.1,1-3.1,2.8-4.7c1.6-1.4,3.9-2.5,6.3-3.3c0.4-0.9,0.8-1.8,1.2-2.8c-1.5,1.3-2.9,2.3-3.8,2.3c-0.8,0-0.9-0.5-0.9-1
			c0-2.1,3.3-5,5.4-5c0.5,0,0.8,0.3,0.8,0.6c0,0.4-0.3,0.7-0.5,0.7c-0.2,0-0.2-0.2-0.3-0.4c-0.1-0.2-0.2-0.4-0.7-0.4
			c-1.5,0-3.8,2.5-3.8,3.9c0,0.5,0.4,0.7,0.8,0.7c0.9,0,2.6-1.3,3.5-2.3c0.5-0.5,0.6-0.8,0.8-1c0.2-0.2,0.3-0.4,0.6-0.4
			c0.2,0,0.2,0.1,0.2,0.2C67.9,95.5,66.3,96.6,65.1,99.7z M57.4,108.4c2.1,0,4.6-2.5,7-8.1c-2.3,0.6-4.4,1.8-5.8,3.1
			c-1.5,1.3-2.3,3-2.3,4C56.2,108.2,56.6,108.4,57.4,108.4z"/>
		<path class="st1" d="M78.9,99.1c2,0,4.8-2,5.1-2.3c0.1-0.1,0.2-0.2,0.2-0.2c0.1,0,0.1,0,0.1,0.1c0,0.1-0.1,0.2-0.2,0.3
			c-0.5,0.5-0.9,0.8-1.9,1.4c-0.8,0.5-2.4,1.4-4.2,1.4c-2.3,0-3.2-1.5-3.2-3.6c0-3.6,2.4-7,3.2-8c0.9-1.2,3.9-4.6,5.9-4.6
			c0.9,0,1.4,0.7,1.4,1.7c0,2.6-4,7.1-5.1,8.1c-1.2,1.1-3.7,3.4-4.2,3.8C76.5,98.8,78,99.1,78.9,99.1z M79.5,93.6
			c0.8-0.8,5.1-5.1,5.1-8.2c0-0.7-0.4-1.2-1.1-1.2c-1.1,0-2.9,1.4-4.5,3.4c-1.8,2.2-3.3,5.2-3.3,7.8c0,0.3,0.1,0.9,0.1,1.4
			C76.2,96.6,78.3,94.9,79.5,93.6z"/>
		<path class="st1" d="M86.2,93.8c0,0.2-0.4,0.5-0.8,1.2c-0.5,0.8-0.8,1.5-0.8,2.3c0,1,0.5,1.6,1.4,1.6c1.5,0,3.3-1.8,3.6-2.1
			c0.1-0.1,0.2-0.2,0.3-0.2c0,0,0.1,0,0.1,0.1c0,0.1-0.1,0.2-0.2,0.3c-0.5,0.5-1.2,1.2-1.8,1.7c-0.8,0.5-1.7,1.1-2.5,1.1
			c-0.9,0-1.6-0.8-1.6-1.8c0-2.1,2-4.3,2.2-4.3C86.1,93.6,86.2,93.7,86.2,93.8z M86.4,91.4c0-0.5,0.4-0.9,0.9-0.9
			c0.5,0,0.8,0.3,0.8,0.9c0,0.6-0.3,0.9-0.8,0.9C86.8,92.2,86.4,91.9,86.4,91.4z"/>
		<path class="st1" d="M100.4,83.2c0.6,0,0.9,0.4,0.9,1.1c0,2.7-5.9,9.7-8.5,11.5c-0.1,0.5-0.2,1.2-0.3,1.6c0.5,0.4,1.1,1,2.7,1
			c1.9,0,3.9-1.1,4.3-1.5c0.1-0.1,0.2-0.2,0.2-0.2c0.1,0,0.1,0,0.1,0.1c0,0.1-0.1,0.2-0.1,0.3c-0.5,0.5-2.8,1.7-4.5,1.7
			c-1.2,0-2.1-0.4-2.7-0.9c-1,4-3.3,11.2-5.6,11.2c-0.4,0-1.1-0.3-1.1-1.6c0-2.7,1.5-5.9,5.4-12.8c0-0.9,0.1-1.8,1.2-1.8
			C93.4,90.8,97.9,83.2,100.4,83.2z M86.3,106.4c0,1.1,0.3,1.4,0.8,1.4c2,0,3.9-5.9,4.9-10.4c-0.5-0.7-0.7-1.1-0.8-1.8
			C88.6,99.9,86.3,104.3,86.3,106.4z M91.6,95.1c0,0.8,0.3,1.4,0.7,1.9c0.2-0.7,0.3-1.9,0.3-2.2c0-0.4-0.1-0.8-0.2-0.9
			C92.1,94.2,91.9,94.6,91.6,95.1z M100.7,84.7c0-0.5-0.2-0.9-0.6-0.9c-2.1,0-5.8,6.7-7.4,9.6c0.2,0.3,0.3,0.9,0.3,1.1
			s0,0.4-0.1,0.8C97.9,91.1,100.7,85.9,100.7,84.7z"/>
		<path class="st1" d="M99.9,97.4c0,1.1,0.6,1.5,1.8,1.5c2,0,4.1-1.8,4.4-2.1c0.1-0.1,0.2-0.2,0.2-0.2c0.1,0,0.1,0,0.1,0.1
			c0,0.1-0.1,0.2-0.2,0.3c-0.5,0.5-0.9,0.8-1.9,1.5c-0.8,0.5-1.9,1.1-3,1.1c-1.9,0-2.3-1-2.3-2.2c0-1.1,0.4-2.2,1.1-3.2
			c0.8-1.2,2.1-2.2,2.8-2.2c0.6,0,0.8,0.5,0.8,0.8c0,0.7-0.4,1.6-1.6,2.6c-1.2,1-1.8,1.3-2.3,1.6C99.8,97.1,99.9,97.2,99.9,97.4z
			 M101.3,95.6c0.9-0.7,1.5-1.5,1.5-2.3c0-0.4-0.2-0.6-0.5-0.6c-0.8,0-1.2,0.7-1.8,1.5c-0.5,0.8-0.7,1.9-0.7,2.4
			C100.1,96.5,100.5,96.3,101.3,95.6z"/>
		<path class="st1" d="M114.2,93.7c0-0.3,0.8-1.5,2-1.5c1.3,0,1.4,1.1,1.4,1.4c0,0.9-0.6,2.1-1.4,3.2c-1.1,1.4-2.4,2.6-3.5,2.6
			c-1,0-1.5-0.5-1.5-1.6c0-1.6,1.5-4.3,3-6.7c1.5-2.4,3.3-5,3.7-6.1c0.2-0.4,0.3-0.8,0.5-0.9c0.1-0.1,0.2-0.1,0.3-0.1
			c0.1,0,0.3,0.1,0.3,0.2c0,0.1-0.2,0.4-0.4,0.7c-0.2,0.3-2.8,4.2-4.1,6.3c-1.5,2.4-2.5,4.6-2.5,5.8c0,1.1,0.7,1.3,1.2,1.3
			c0.9,0,1.9-0.6,2.7-1.8c0.8-1.2,1.1-2.1,1.1-2.6c0-0.5-0.3-1-0.9-1c-0.4,0-0.8,0.2-1,0.5c-0.2,0.2-0.4,0.6-0.6,0.6
			C114.2,94,114.2,93.9,114.2,93.7z"/>
		<path class="st1" d="M118.9,97.4c0,1.1,0.6,1.5,1.8,1.5c2,0,4.1-1.8,4.4-2.1c0.1-0.1,0.2-0.2,0.2-0.2c0.1,0,0.1,0,0.1,0.1
			c0,0.1-0.1,0.2-0.2,0.3c-0.5,0.5-0.9,0.8-1.9,1.5c-0.8,0.5-1.9,1.1-3,1.1c-1.9,0-2.3-1-2.3-2.2c0-1.1,0.4-2.2,1.1-3.2
			c0.8-1.2,2-2.2,2.8-2.2c0.6,0,0.8,0.5,0.8,0.8c0,0.7-0.4,1.6-1.6,2.6c-1.2,1-1.8,1.3-2.3,1.6C118.9,97.1,118.9,97.2,118.9,97.4z
			 M120.3,95.6c0.9-0.7,1.5-1.5,1.5-2.3c0-0.4-0.2-0.6-0.5-0.6c-0.7,0-1.2,0.7-1.8,1.5c-0.5,0.8-0.7,1.9-0.7,2.4
			C119.2,96.5,119.5,96.3,120.3,95.6z"/>
		<path class="st1" d="M129.8,94.7c0.1,0,0.1,0.1,0.1,0.2c0,0.2-0.4,0.8-0.4,1.9c0,1.2,0.6,1.7,1.6,1.7c1.2,0,2.9-1.3,3.2-1.7
			c0.1-0.1,0.2-0.2,0.3-0.2c0.1,0,0.1,0,0.1,0.1c0,0.1-0.1,0.2-0.1,0.3c-0.5,0.5-0.9,0.8-1.9,1.4c-0.8,0.5-1.7,0.9-2.4,0.9
			c-1.1,0-1.5-0.9-1.5-2.4c-0.6,0.7-2.3,2.3-3.2,2.3s-1-0.7-1-1.1c0-0.9,1-2.1,1.7-2.9c0.7-0.8,1.8-1.8,2.6-1.8
			c0.4,0,0.6,0.3,0.6,0.7c0,0.2-0.1,0.4-0.2,0.6c-0.1,0.2-0.3,0.3-0.4,0.3c-0.2,0-0.1-0.3-0.2-0.4c-0.1-0.1-0.2-0.3-0.5-0.3
			c-0.7,0-2.6,1.6-2.6,3.2c0,0.6,0.3,0.9,0.8,0.9c0.4,0,1.7-0.7,2.8-2.1C129.5,95.4,129.5,94.7,129.8,94.7z"/>
		<path class="st1" d="M140,93.7c0.1,0,0.2,0.1,0.2,0.3c0,0.4-0.9,1.3-1.4,1.8c-0.3,0.4-0.4,0.9-0.4,1.4c0,1.1,0.8,1.7,1.6,1.7
			c1.3,0,2.8-1.6,3.2-2.1c0-0.1,0.2-0.2,0.3-0.2c0.1,0,0.1,0,0.1,0.1c0,0.1-0.1,0.2-0.2,0.3c-0.5,0.6-1.1,1.4-1.7,1.8
			c-0.7,0.6-1.4,0.9-2,0.9c-1.4,0-1.7-1.3-1.7-2.9c-0.6,0.7-2.4,2.7-3.4,2.7c-0.6,0-0.8-0.4-0.8-1c0-0.9,0.6-2,1.4-2.9
			c0.7-0.9,1.3-1.5,1.6-1.5c0.1,0,0.1,0.1,0.1,0.2c0,0.1-0.1,0.1-0.2,0.2c-0.6,0.5-2.1,2.4-2.1,3.5c0,0.5,0.1,0.8,0.5,0.8
			c0.6,0,1.8-0.9,3-2.6C138.3,95.4,139.2,93.7,140,93.7z"/>
		<path class="st1" d="M147.4,90.6c-1,0-2.1,0-2.4,0c-0.3,0-0.4,0-0.4-0.2c0-0.1,0.2-0.4,1.1-0.4c0.3,0,1.6,0,2.3,0
			c0.4-0.5,2-2.4,2.1-2.5c0.1-0.1,0.2-0.1,0.4-0.1c0.2,0,0.3,0.1,0.3,0.3c0,0.2-1.5,1.7-2.1,2.4c0.5,0,2.3,0,2.4,0
			c0.3,0,0.3,0.1,0.3,0.2s-0.3,0.4-0.8,0.4c-0.3,0-1.7,0-2.7,0c-0.7,1-2,2.6-2.2,2.9c-1,1.4-2,3.1-2,4.3c0,1,0.8,1.7,1.8,1.7
			c2.2,0,4.6-2.4,5.1-2.7c0.1-0.1,0.2-0.2,0.3-0.2c0,0,0.1,0,0.1,0.1c0,0.1-0.1,0.2-0.2,0.3c-0.5,0.5-1.1,1.1-1.9,1.8
			c-0.9,0.7-2.1,1.6-3.5,1.6c-1.1,0-2.3-0.5-2.3-2c0-1.8,1.4-3.7,2.4-5C145.9,92.6,146.8,91.4,147.4,90.6z"/>
		<path class="st1" d="M152.4,93.8c0,0.2-0.4,0.5-0.8,1.2c-0.5,0.8-0.8,1.5-0.8,2.3c0,1,0.5,1.6,1.4,1.6c1.5,0,3.3-1.8,3.6-2.1
			c0.1-0.1,0.2-0.2,0.3-0.2c0.1,0,0.1,0,0.1,0.1c0,0.1-0.1,0.2-0.2,0.3c-0.5,0.5-1.2,1.2-1.8,1.7c-0.8,0.5-1.7,1.1-2.5,1.1
			c-0.9,0-1.6-0.8-1.6-1.8c0-2.1,2-4.3,2.2-4.3C152.4,93.6,152.4,93.7,152.4,93.8z M152.7,91.4c0-0.5,0.4-0.9,0.9-0.9
			c0.5,0,0.8,0.3,0.8,0.9c0,0.6-0.3,0.9-0.8,0.9C153.1,92.2,152.7,91.9,152.7,91.4z"/>
		<path class="st1" d="M166.7,83.2c0.6,0,0.9,0.4,0.9,1.1c0,2.7-5.9,9.7-8.5,11.5c-0.1,0.5-0.2,1.2-0.3,1.6c0.4,0.4,1.1,1,2.7,1
			c1.9,0,3.9-1.1,4.3-1.5c0.1-0.1,0.2-0.2,0.2-0.2c0.1,0,0.1,0,0.1,0.1c0,0.1-0.1,0.2-0.1,0.3c-0.5,0.5-2.8,1.7-4.5,1.7
			c-1.2,0-2.1-0.4-2.7-0.9c-1,4-3.3,11.2-5.6,11.2c-0.4,0-1.1-0.3-1.1-1.6c0-2.7,1.5-5.9,5.4-12.8c0-0.9,0.1-1.8,1.1-1.8
			C159.7,90.8,164.2,83.2,166.7,83.2z M152.6,106.4c0,1.1,0.3,1.4,0.8,1.4c2,0,3.9-5.9,5-10.4c-0.5-0.7-0.7-1.1-0.8-1.8
			C154.9,99.9,152.6,104.3,152.6,106.4z M157.9,95.1c0,0.8,0.3,1.4,0.6,1.9c0.2-0.7,0.3-1.9,0.3-2.2c0-0.4-0.1-0.8-0.2-0.9
			C158.4,94.2,158.2,94.6,157.9,95.1z M167,84.7c0-0.5-0.2-0.9-0.6-0.9c-2,0-5.8,6.7-7.4,9.6c0.2,0.3,0.3,0.9,0.3,1.1s0,0.4-0.1,0.8
			C164.2,91.1,167,85.9,167,84.7z"/>
		<path class="st1" d="M171.3,93.7c0.1,0,0.2,0.1,0.2,0.3c0,0.4-0.9,1.3-1.3,1.8c-0.3,0.4-0.4,0.9-0.4,1.4c0,1.1,0.8,1.7,1.6,1.7
			c1.3,0,2.8-1.6,3.2-2.1c0-0.1,0.2-0.2,0.3-0.2c0.1,0,0.1,0,0.1,0.1c0,0.1-0.1,0.2-0.2,0.3c-0.5,0.6-1.1,1.4-1.7,1.8
			c-0.7,0.6-1.4,0.9-2,0.9c-1.3,0-1.7-1.3-1.7-2.9c-0.6,0.7-2.4,2.7-3.4,2.7c-0.6,0-0.8-0.4-0.8-1c0-0.9,0.6-2,1.3-2.9
			c0.7-0.9,1.4-1.5,1.6-1.5c0.1,0,0.1,0.1,0.1,0.2c0,0.1-0.1,0.1-0.2,0.2c-0.6,0.5-2.1,2.4-2.1,3.5c0,0.5,0.1,0.8,0.5,0.8
			c0.6,0,1.8-0.9,3-2.6C169.6,95.4,170.6,93.7,171.3,93.7z"/>
		<path class="st1" d="M177.4,99.1c2,0,4.8-2,5.1-2.3c0.1-0.1,0.2-0.2,0.2-0.2c0.1,0,0.1,0,0.1,0.1c0,0.1-0.1,0.2-0.2,0.3
			c-0.5,0.5-0.9,0.8-1.9,1.4c-0.8,0.5-2.4,1.4-4.2,1.4c-2.3,0-3.2-1.5-3.2-3.6c0-3.6,2.4-7,3.2-8c0.9-1.2,3.9-4.6,5.9-4.6
			c0.9,0,1.4,0.7,1.4,1.7c0,2.6-4,7.1-5.1,8.1c-1.2,1.1-3.7,3.4-4.2,3.8C175.1,98.8,176.5,99.1,177.4,99.1z M178,93.6
			c0.8-0.8,5.1-5.1,5.1-8.2c0-0.7-0.4-1.2-1.1-1.2c-1.1,0-2.9,1.4-4.5,3.4c-1.8,2.2-3.3,5.2-3.3,7.8c0,0.3,0.1,0.9,0.1,1.4
			C174.8,96.6,176.8,94.9,178,93.6z"/>
	</g>
</g>
</svg>
