<svg viewBox="0 0 384.55 65" xmlns="http://www.w3.org/2000/svg"><path d="m17.08 64.38c-2.13 0-4.19-.3-6.18-.9s-3.87-1.46-5.62-2.57h.07c-1.25-.79-2.36-1.64-3.33-2.57s-1.64-1.6-2.01-2.01l7.22-6.66c.32.42.84.91 1.56 1.49s1.54 1.13 2.46 1.67c.93.53 1.9.98 2.92 1.35s1.99.56 2.92.56c.79 0 1.57-.09 2.36-.28.79-.18 1.5-.47 2.15-.87.65-.39 1.18-.91 1.6-1.56s.62-1.46.62-2.43c0-.37-.13-.77-.38-1.21s-.69-.91-1.32-1.42c-.62-.51-1.49-1.05-2.6-1.63s-2.5-1.19-4.17-1.84c-1.94-.74-3.75-1.54-5.42-2.4s-3.11-1.86-4.34-3.02-2.18-2.48-2.85-3.96-1.01-3.19-1.01-5.14.37-3.85 1.11-5.59 1.79-3.24 3.16-4.51c1.36-1.27 3.01-2.27 4.93-2.99s4.04-1.08 6.35-1.08c1.25 0 2.58.16 3.99.49 1.41.32 2.79.74 4.13 1.25s2.6 1.1 3.78 1.77 2.16 1.35 2.95 2.05l-5.97 7.5c-.88-.6-1.78-1.16-2.71-1.67-.79-.42-1.69-.81-2.71-1.18s-2.06-.56-3.12-.56c-1.94 0-3.46.38-4.55 1.15-1.09.76-1.63 1.86-1.63 3.3 0 .65.2 1.24.59 1.77s.93 1.02 1.6 1.46 1.45.84 2.33 1.21 1.81.72 2.78 1.04c2.78 1.07 5.11 2.14 7.01 3.23s3.42 2.25 4.58 3.47c1.16 1.23 1.98 2.55 2.46 3.96.49 1.41.73 2.95.73 4.62 0 2.04-.42 3.96-1.25 5.76-.83 1.81-1.98 3.37-3.44 4.69s-3.19 2.36-5.21 3.12c-2.01.76-4.2 1.15-6.56 1.15z"/><path d="m78.24 63.89h-29.23v-48.6h9.65v38.95h19.58z"/><path d="m109.69 64.38c-3.1 0-6.13-.58-9.09-1.74s-5.61-2.81-7.95-4.96-4.21-4.76-5.62-7.81-2.12-6.46-2.12-10.21c0-3.24.62-6.36 1.87-9.37s2.97-5.66 5.17-7.95 4.81-4.12 7.85-5.48c3.03-1.36 6.33-2.05 9.89-2.05 3.19 0 6.28.61 9.27 1.84s5.62 2.94 7.91 5.14 4.13 4.83 5.52 7.88 2.08 6.39 2.08 10c0 3.19-.61 6.28-1.84 9.27s-2.94 5.62-5.14 7.91-4.81 4.12-7.85 5.48c-3.03 1.37-6.35 2.05-9.96 2.05zm0-39.92c-2.08 0-4.04.39-5.87 1.18s-3.44 1.87-4.83 3.26-2.48 3.01-3.26 4.86c-.79 1.85-1.18 3.82-1.18 5.9s.4 4.04 1.22 5.87c.81 1.83 1.9 3.43 3.26 4.79 1.36 1.37 2.96 2.44 4.79 3.23s3.78 1.18 5.87 1.18 4.04-.39 5.87-1.18 3.42-1.86 4.79-3.23 2.44-2.96 3.23-4.79 1.18-3.78 1.18-5.87-.41-4.05-1.22-5.9-1.9-3.47-3.26-4.86c-1.37-1.39-2.96-2.48-4.79-3.26-1.83-.79-3.76-1.18-5.8-1.18z"/><path d="m241.46 64.38c-3.1 0-6.13-.58-9.09-1.74s-5.61-2.81-7.95-4.96-4.21-4.76-5.62-7.81-2.12-6.46-2.12-10.21c0-3.24.62-6.36 1.87-9.37s2.97-5.66 5.17-7.95 4.81-4.12 7.84-5.48 6.33-2.05 9.89-2.05c3.19 0 6.28.61 9.27 1.84s5.62 2.94 7.91 5.14 4.13 4.83 5.52 7.88 2.08 6.39 2.08 10c0 3.19-.61 6.28-1.84 9.27s-2.94 5.62-5.14 7.91-4.81 4.12-7.84 5.48c-3.03 1.37-6.35 2.05-9.96 2.05zm0-39.92c-2.08 0-4.04.39-5.87 1.18s-3.44 1.87-4.83 3.26-2.48 3.01-3.26 4.86c-.79 1.85-1.18 3.82-1.18 5.9s.4 4.04 1.21 5.87 1.9 3.43 3.26 4.79c1.36 1.37 2.96 2.44 4.79 3.23s3.78 1.18 5.87 1.18 4.04-.39 5.87-1.18 3.42-1.86 4.79-3.23c1.36-1.36 2.44-2.96 3.23-4.79s1.18-3.78 1.18-5.87-.41-4.05-1.21-5.9c-.81-1.85-1.9-3.47-3.26-4.86-1.37-1.39-2.96-2.48-4.79-3.26-1.83-.79-3.76-1.18-5.8-1.18z"/><path d="m303.53 64.38c-3.1 0-6.13-.58-9.09-1.74s-5.61-2.81-7.95-4.96-4.21-4.76-5.62-7.81-2.12-6.46-2.12-10.21c0-3.24.62-6.36 1.87-9.37s2.97-5.66 5.17-7.95 4.81-4.12 7.84-5.48 6.33-2.05 9.89-2.05c3.19 0 6.28.61 9.27 1.84s5.62 2.94 7.91 5.14 4.13 4.83 5.52 7.88 2.08 6.39 2.08 10c0 3.19-.61 6.28-1.84 9.27s-2.94 5.62-5.14 7.91-4.81 4.12-7.84 5.48c-3.03 1.37-6.35 2.05-9.96 2.05zm0-39.92c-2.08 0-4.04.39-5.87 1.18s-3.44 1.87-4.83 3.26-2.48 3.01-3.26 4.86c-.79 1.85-1.18 3.82-1.18 5.9s.4 4.04 1.21 5.87 1.9 3.43 3.26 4.79c1.36 1.37 2.96 2.44 4.79 3.23s3.78 1.18 5.87 1.18 4.04-.39 5.87-1.18 3.42-1.86 4.79-3.23c1.36-1.36 2.44-2.96 3.23-4.79s1.18-3.78 1.18-5.87-.41-4.05-1.21-5.9c-.81-1.85-1.9-3.47-3.26-4.86-1.37-1.39-2.96-2.48-4.79-3.26-1.83-.79-3.76-1.18-5.8-1.18z"/><path d="m344.14 63.89v-48.6h16.87c3.61 0 6.86.59 9.75 1.77s5.36 2.85 7.39 5c2.04 2.15 3.61 4.72 4.72 7.71s1.67 6.28 1.67 9.89-.56 6.61-1.67 9.55-2.68 5.5-4.72 7.67c-2.04 2.18-4.5 3.89-7.39 5.14s-6.14 1.87-9.75 1.87zm9.58-9.65h7.29c1.99 0 3.83-.37 5.52-1.11s3.16-1.77 4.41-3.09 2.22-2.87 2.92-4.65c.69-1.78 1.04-3.69 1.04-5.73s-.35-3.95-1.04-5.73-1.67-3.33-2.92-4.65-2.72-2.36-4.41-3.12-3.53-1.15-5.52-1.15h-7.29z"/><path d="m209.04 14.18-18.95 50.75h-.97l-13.75-29.58-13.89 29.64h-.9l-18.74-50.82h10.34l9.93 27.84 12.91-27.84h.62l12.91 27.91 10.14-27.91h10.34z"/><path d="m84.91 0h46.52v8.77h-46.52z"/></svg>